<?xml version="1.0" encoding="utf-8"?>
<!-- Generator: Adobe Illustrator 22.0.1, SVG Export Plug-In . SVG Version: 6.00 Build 0)  -->
<svg version="1.1" id="Layer_1" xmlns="http://www.w3.org/2000/svg" xmlns:xlink="http://www.w3.org/1999/xlink" x="0px" y="0px"
	 viewBox="0 0 472.5 367.5" style="enable-background:new 0 0 472.5 367.5;" xml:space="preserve">
<style type="text/css">
	.st0{fill:#FFFFFF;}
</style>
<path class="st0" d="M446.2,52.5h-420c-9.4,0-18-5-22.7-13.1c-4.7-8.1-4.7-18.1,0-26.3C8.2,5,16.9,0,26.2,0h420
	c9.4,0,18,5,22.7,13.1c4.7,8.1,4.7,18.1,0,26.3C464.3,47.5,455.6,52.5,446.2,52.5z M367.5,183.8c0-7-2.8-13.6-7.7-18.6
	s-11.6-7.7-18.6-7.7h-315c-9.4,0-18,5-22.7,13.1c-4.7,8.1-4.7,18.1,0,26.3C8.2,205,16.9,210,26.3,210h315c7,0,13.6-2.8,18.6-7.7
	S367.5,190.7,367.5,183.8L367.5,183.8z M262.5,341.3c0-7-2.8-13.6-7.7-18.6s-11.6-7.7-18.6-7.7h-210c-9.4,0-18,5-22.7,13.1
	c-4.7,8.1-4.7,18.1,0,26.3c4.7,8.1,13.4,13.1,22.7,13.1h210c7,0,13.6-2.8,18.6-7.7S262.5,348.2,262.5,341.3L262.5,341.3z"/>
</svg>
